<?xml version="1.0" encoding="UTF-8" standalone="no"?>
<!DOCTYPE svg PUBLIC "-//W3C//DTD SVG 1.1//EN" "http://www.w3.org/Graphics/SVG/1.1/DTD/svg11.dtd">
<svg width="100%" height="100%" viewBox="0 0 1349 359" version="1.1" xmlns="http://www.w3.org/2000/svg" xmlns:xlink="http://www.w3.org/1999/xlink" xml:space="preserve" xmlns:serif="http://www.serif.com/" style="fill-rule:evenodd;clip-rule:evenodd;stroke-linejoin:round;stroke-miterlimit:2;">
    <g transform="matrix(1,0,0,1,-1254.64,0)">
        <g id="Artboard1" transform="matrix(1.31647,0,0,0.716079,1254.64,0)">
            <rect x="0" y="0" width="1024" height="500" style="fill:white;"/>
            <clipPath id="_clip1">
                <rect x="0" y="0" width="1024" height="500"/>
            </clipPath>
            <g clip-path="url(#_clip1)">
                <g transform="matrix(0.743011,0,0,1.36598,135.834,55.4646)">
                    <g transform="matrix(-1.60843,-0.776437,-0.852149,1.76527,1361.05,256.378)">
                        <g transform="matrix(1,0,0,1,1.47722,-59.7221)">
                            <path d="M230.532,24.612L285.744,19.182C285.744,19.182 293.362,18.858 302.6,12.861C311.838,6.865 328.532,23.234 308.434,34.903C308.434,34.903 281.355,50.138 230.153,39.441L230.532,24.612Z" style="fill:rgb(245,245,245);"/>
                        </g>
                        <g transform="matrix(-1,0,0,1,511.053,-59.7221)">
                            <path d="M231.207,22.721L285.744,19.182C285.744,19.182 293.362,18.858 302.6,12.861C311.838,6.865 328.532,23.234 308.434,34.903C308.434,34.903 275.411,49.557 224.209,38.86L231.207,22.721Z" style="fill:rgb(245,245,245);"/>
                        </g>
                    </g>
                    <g transform="matrix(0.743866,-1.3909,-1.51988,-0.648257,838.578,439.296)">
                        <path d="M289.434,27.826C289.434,22.835 285.206,18.784 279.999,18.784L222.36,18.784C217.153,18.784 212.925,22.835 212.925,27.826C212.925,32.816 217.153,36.868 222.36,36.868L279.999,36.868C285.206,36.868 289.434,32.816 289.434,27.826Z" style="fill:rgb(245,245,245);"/>
                    </g>
                    <g transform="matrix(0.743866,-1.3909,-1.51988,-0.648257,763.137,397.803)">
                        <path d="M289.434,27.826C289.434,22.835 285.206,18.784 279.999,18.784L222.36,18.784C217.153,18.784 212.925,22.835 212.925,27.826C212.925,32.816 217.153,36.868 222.36,36.868L279.999,36.868C285.206,36.868 289.434,32.816 289.434,27.826Z" style="fill:rgb(245,245,245);"/>
                    </g>
                    <g transform="matrix(-3.13932,0,0,3.13932,1150.96,-139.676)">
                        <circle cx="89.625" cy="108.752" r="50.578" style="fill:rgb(245,245,245);"/>
                    </g>
                    <g transform="matrix(-1.9354,0,0,1.9354,1040.91,-12.6216)">
                        <circle cx="89.625" cy="108.752" r="50.578" style="fill:white;"/>
                    </g>
                    <g transform="matrix(-1.04049,0,0,1.04049,961.32,84.0874)">
                        <circle cx="89.625" cy="108.752" r="50.578" style="fill:rgb(245,245,245);"/>
                    </g>
                </g>
                <g transform="matrix(-0.745059,0,0,0.935963,578.482,-19.4123)">
                    <g transform="matrix(0.264355,0,0,-0.386874,-365.223,1159.02)">
                        <rect x="3711.02" y="1557.45" width="308.45" height="308.45" style="fill:rgb(255,143,45);fill-rule:nonzero;"/>
                    </g>
                    <g transform="matrix(0.264355,0,0,-0.386874,-365.223,1159.02)">
                        <path d="M3711.02,1557.45L3710.89,1557.45L3710.89,1866.02L4019.59,1866.02L4019.59,1557.32L3710.89,1557.32L3710.89,1557.45L3711.02,1557.45L3711.02,1557.57L4019.34,1557.57L4019.34,1865.77L3711.14,1865.77L3711.14,1557.45L3711.02,1557.45L3711.02,1557.57L3711.02,1557.45Z" style="fill:rgb(35,31,32);fill-rule:nonzero;"/>
                    </g>
                    <g transform="matrix(0.264355,0,0,-0.386874,-365.223,1159.02)">
                        <path d="M4327.91,1557.45L4327.91,1865.9L4019.47,1557.45L4327.91,1557.45Z" style="fill:rgb(255,143,45);fill-rule:nonzero;"/>
                    </g>
                    <g transform="matrix(0.264355,0,0,-0.386874,-365.223,1159.02)">
                        <path d="M3865.24,1865.9C3780.07,1865.9 3711.02,1796.85 3711.02,1711.67C3711.02,1626.5 3780.07,1557.45 3865.24,1557.45C3950.42,1557.45 4019.47,1626.5 4019.47,1711.67C4019.47,1796.85 3950.42,1865.9 3865.24,1865.9Z" style="fill:rgb(255,186,4);fill-rule:nonzero;"/>
                    </g>
                    <g transform="matrix(0.264355,0,0,-0.386874,-365.223,1159.02)">
                        <path d="M4019.47,1711.49C4103.35,1711.5 4171.34,1643.5 4171.34,1559.62C4171.34,1558.89 4171.33,1558.17 4171.32,1557.45L4019.47,1557.45L4019.47,1711.49Z" style="fill:rgb(1,53,111);fill-rule:nonzero;"/>
                    </g>
                    <g transform="matrix(0.264355,0,0,-0.386874,-365.223,1159.02)">
                        <path d="M4327.91,1581.84C4173.24,1581.84 4047.86,1707.23 4047.86,1861.9C4047.86,1863.23 4047.89,1864.56 4047.91,1865.9L4327.91,1865.9L4327.91,1581.84Z" style="fill:rgb(255,143,45);fill-rule:nonzero;"/>
                    </g>
                    <g transform="matrix(0.264355,0,0,-0.386874,-365.223,1159.02)">
                        <path d="M3865.24,1790.3C3821.82,1790.3 3786.61,1755.1 3786.61,1711.67C3786.61,1668.25 3821.82,1633.04 3865.24,1633.04C3908.67,1633.04 3943.87,1668.25 3943.87,1711.67C3943.87,1755.1 3908.67,1790.3 3865.24,1790.3Z" style="fill:rgb(255,143,45);fill-rule:nonzero;"/>
                    </g>
                    <g transform="matrix(0.264355,0,0,-0.386874,-365.223,1159.02)">
                        <path d="M4019.47,1711.67L3865.24,1711.67L3865.24,1865.9C3950.42,1865.9 4019.47,1796.85 4019.47,1711.67Z" style="fill:rgb(1,53,111);fill-rule:nonzero;"/>
                    </g>
                    <g transform="matrix(0.264355,0,0,-0.386874,-365.223,1159.02)">
                        <path d="M3943.87,1711.67L3865.24,1711.67L3865.24,1790.3C3908.67,1790.3 3943.87,1755.1 3943.87,1711.67Z" style="fill:rgb(255,175,11);fill-rule:nonzero;"/>
                    </g>
                    <g transform="matrix(0.264355,0,0,-0.386874,-365.223,1159.02)">
                        <path d="M4019.47,1711.67C4019.47,1796.85 3950.42,1865.9 3865.24,1865.9L4019.47,1865.9L4019.47,1711.67Z" style="fill:rgb(60,124,156);fill-rule:nonzero;"/>
                    </g>
                    <g transform="matrix(0.264355,0,0,-0.386874,-365.223,1159.02)">
                        <path d="M4327.91,1636.85C4203.19,1636.85 4102.09,1737.96 4102.09,1862.67C4102.09,1863.75 4102.12,1864.82 4102.13,1865.9L4327.91,1865.9L4327.91,1636.85Z" style="fill:white;fill-rule:nonzero;"/>
                    </g>
                    <g transform="matrix(0.264355,0,0,-0.386874,-365.223,1159.02)">
                        <path d="M4327.91,1645.08C4207.67,1645.08 4110.21,1742.55 4110.21,1862.79C4110.21,1863.83 4110.23,1864.86 4110.25,1865.9L4327.91,1865.9L4327.91,1645.08Z" style="fill:rgb(255,186,4);fill-rule:nonzero;"/>
                    </g>
                    <g transform="matrix(0.264355,0,0,-0.386874,-365.223,1159.02)">
                        <path d="M4327.91,1709.32C4242.65,1709.32 4173.54,1778.43 4173.54,1863.69C4173.54,1864.43 4173.56,1865.16 4173.57,1865.9L4327.91,1865.9L4327.91,1709.32Z" style="fill:rgb(1,53,111);fill-rule:nonzero;"/>
                    </g>
                    <g transform="matrix(0.264355,0,0,-0.386874,-365.223,1159.02)">
                        <path d="M4171.34,1559.62C4171.34,1558.89 4171.33,1558.17 4171.32,1557.45L4019.47,1557.45L4127.93,1665.91C4154.78,1638.52 4171.34,1601 4171.34,1559.62Z" style="fill:rgb(255,186,4);fill-rule:nonzero;"/>
                    </g>
                    <g transform="matrix(0.264355,0,0,-0.386874,-365.223,1159.02)">
                        <path d="M4127.9,1665.88L4327.91,1865.9L4327.91,1581.84C4249.56,1581.84 4178.72,1614.02 4127.9,1665.88Z" style="fill:rgb(60,124,156);fill-rule:nonzero;"/>
                    </g>
                    <g transform="matrix(0.264355,0,0,-0.386874,-365.223,1159.02)">
                        <path d="M3888.47,1700.14C3881.29,1700.14 3875.46,1694.32 3875.46,1687.13C3875.46,1679.95 3881.29,1674.12 3888.47,1674.12C3895.66,1674.12 3901.49,1679.95 3901.49,1687.13C3901.49,1694.32 3895.66,1700.14 3888.47,1700.14Z" style="fill:white;fill-rule:nonzero;"/>
                    </g>
                    <g transform="matrix(0.264355,0,0,-0.386874,-365.223,1159.02)">
                        <path d="M3888.47,1749.22C3881.29,1749.22 3875.46,1743.4 3875.46,1736.21C3875.46,1729.03 3881.29,1723.2 3888.47,1723.2C3895.66,1723.2 3901.49,1729.03 3901.49,1736.21C3901.49,1743.4 3895.66,1749.22 3888.47,1749.22Z" style="fill:white;fill-rule:nonzero;"/>
                    </g>
                    <g transform="matrix(0.264355,0,0,-0.386874,-365.223,1159.02)">
                        <path d="M3842.01,1700.14C3834.82,1700.14 3828.99,1694.32 3828.99,1687.13C3828.99,1679.95 3834.82,1674.12 3842.01,1674.12C3849.2,1674.12 3855.02,1679.95 3855.02,1687.13C3855.02,1694.32 3849.2,1700.14 3842.01,1700.14Z" style="fill:white;fill-rule:nonzero;"/>
                    </g>
                    <g transform="matrix(0.264355,0,0,-0.386874,-365.223,1159.02)">
                        <path d="M3842.01,1749.22C3834.82,1749.22 3828.99,1743.4 3828.99,1736.21C3828.99,1729.03 3834.82,1723.2 3842.01,1723.2C3849.2,1723.2 3855.02,1729.03 3855.02,1736.21C3855.02,1743.4 3849.2,1749.22 3842.01,1749.22Z" style="fill:white;fill-rule:nonzero;"/>
                    </g>
                    <g transform="matrix(0.264355,0,0,-0.386874,-365.223,1159.02)">
                        <path d="M4166.64,1704.63L4327.91,1865.9L4327.91,1636.85C4264.73,1636.85 4207.63,1662.81 4166.64,1704.63Z" style="fill:white;fill-rule:nonzero;"/>
                    </g>
                    <g transform="matrix(0.264355,0,0,-0.386874,-365.223,1159.02)">
                        <path d="M4172.44,1710.42L4327.91,1865.9L4327.91,1645.08C4267,1645.08 4211.95,1670.1 4172.44,1710.42Z" style="fill:rgb(255,143,45);fill-rule:nonzero;"/>
                    </g>
                    <g transform="matrix(0.264355,0,0,-0.386874,-365.223,1159.02)">
                        <path d="M4217.67,1755.65L4327.91,1865.9L4327.91,1709.32C4284.72,1709.32 4245.68,1727.06 4217.67,1755.65Z" style="fill:rgb(60,124,156);fill-rule:nonzero;"/>
                    </g>
                    <g transform="matrix(0.258607,0,0,0.378461,-341.228,-35.6186)">
                        <path d="M4019.46,1249L4327.91,1249L4327.91,940.555C4157.56,940.555 4019.46,1078.65 4019.46,1249Z" style="fill:rgb(1,53,111);fill-rule:nonzero;"/>
                    </g>
                    <g transform="matrix(0.258607,0,0,0.378461,-341.228,-35.6186)">
                        <path d="M4327.91,940.555L4327.91,1249L4109.81,1030.9C4165.63,975.08 4242.74,940.555 4327.91,940.555Z" style="fill:rgb(255,151,88);fill-rule:nonzero;"/>
                    </g>
                    <g transform="matrix(0.258607,0,0,0.378461,-341.228,-35.6186)">
                        <path d="M4274.03,1058.87C4266.84,1058.87 4261.02,1064.69 4261.02,1071.88C4261.02,1079.06 4266.84,1084.89 4274.03,1084.89C4281.22,1084.89 4287.05,1079.06 4287.05,1071.88C4287.05,1064.69 4281.22,1058.87 4274.03,1058.87Z" style="fill:white;fill-rule:nonzero;"/>
                    </g>
                    <g transform="matrix(0.258607,0,0,0.378461,-341.228,-35.6186)">
                        <path d="M4274.03,1009.78C4266.84,1009.78 4261.02,1015.61 4261.02,1022.8C4261.02,1029.98 4266.84,1035.81 4274.03,1035.81C4281.22,1035.81 4287.05,1029.98 4287.05,1022.8C4287.05,1015.61 4281.22,1009.78 4274.03,1009.78Z" style="fill:white;fill-rule:nonzero;"/>
                    </g>
                    <g transform="matrix(0.258607,0,0,0.378461,-341.228,-35.6186)">
                        <path d="M4274.03,1108.42C4266.84,1108.42 4261.02,1114.25 4261.02,1121.43C4261.02,1128.62 4266.84,1134.45 4274.03,1134.45C4281.22,1134.45 4287.05,1128.62 4287.05,1121.43C4287.05,1114.25 4281.22,1108.42 4274.03,1108.42Z" style="fill:white;fill-rule:nonzero;"/>
                    </g>
                    <g transform="matrix(1.98614e-17,-0.474689,0.32436,2.90663e-17,296.015,2046.79)">
                        <path d="M3292.13,834.685C3292.13,751.116 3224.38,683.371 3140.81,683.371L3140.81,986C3224.38,986 3292.13,918.255 3292.13,834.685Z" style="fill:rgb(255,143,45);fill-rule:nonzero;"/>
                    </g>
                    <g transform="matrix(1.98614e-17,-0.474689,0.32436,2.90663e-17,296.015,2046.79)">
                        <path d="M3243.7,834.686C3243.7,777.865 3197.64,731.803 3140.81,731.803L3140.81,937.568C3197.64,937.568 3243.7,891.506 3243.7,834.686Z" style="fill:rgb(1,53,111);fill-rule:nonzero;"/>
                    </g>
                    <g transform="matrix(1.98614e-17,-0.474689,0.32436,2.90663e-17,296.015,2046.79)">
                        <path d="M3194.36,811.89C3194.36,818.942 3188.64,824.658 3181.59,824.658C3174.54,824.658 3168.82,818.942 3168.82,811.89C3168.82,804.839 3174.54,799.123 3181.59,799.123C3188.64,799.123 3194.36,804.839 3194.36,811.89Z" style="fill:white;fill-rule:nonzero;"/>
                    </g>
                    <g transform="matrix(1.98614e-17,-0.474689,0.32436,2.90663e-17,296.015,2046.79)">
                        <path d="M3194.36,857.48C3194.36,864.532 3188.64,870.248 3181.59,870.248C3174.54,870.248 3168.82,864.532 3168.82,857.48C3168.82,850.429 3174.54,844.712 3181.59,844.712C3188.64,844.712 3194.36,850.429 3194.36,857.48Z" style="fill:white;fill-rule:nonzero;"/>
                    </g>
                </g>
                <g transform="matrix(0.745059,0,0,0.935963,446.304,-19.208)">
                    <g transform="matrix(0.264355,0,0,-0.386874,-365.223,1159.02)">
                        <rect x="3711.02" y="1557.45" width="308.45" height="308.45" style="fill:rgb(255,143,45);fill-rule:nonzero;"/>
                    </g>
                    <g transform="matrix(0.264355,0,0,-0.386874,-365.223,1159.02)">
                        <path d="M3711.02,1557.45L3710.89,1557.45L3710.89,1866.02L4019.59,1866.02L4019.59,1557.32L3710.89,1557.32L3710.89,1557.45L3711.02,1557.45L3711.02,1557.57L4019.34,1557.57L4019.34,1865.77L3711.14,1865.77L3711.14,1557.45L3711.02,1557.45L3711.02,1557.57L3711.02,1557.45Z" style="fill:rgb(35,31,32);fill-rule:nonzero;"/>
                    </g>
                    <g transform="matrix(0.264355,0,0,-0.386874,-365.223,1159.02)">
                        <path d="M4327.91,1557.45L4327.91,1865.9L4019.47,1557.45L4327.91,1557.45Z" style="fill:rgb(255,143,45);fill-rule:nonzero;"/>
                    </g>
                    <g transform="matrix(0.264355,0,0,-0.386874,-365.223,1159.02)">
                        <path d="M3865.24,1865.9C3780.07,1865.9 3711.02,1796.85 3711.02,1711.67C3711.02,1626.5 3780.07,1557.45 3865.24,1557.45C3950.42,1557.45 4019.47,1626.5 4019.47,1711.67C4019.47,1796.85 3950.42,1865.9 3865.24,1865.9Z" style="fill:rgb(255,186,4);fill-rule:nonzero;"/>
                    </g>
                    <g transform="matrix(0.264355,0,0,-0.386874,-365.223,1159.02)">
                        <path d="M4019.47,1711.49C4103.35,1711.5 4171.34,1643.5 4171.34,1559.62C4171.34,1558.89 4171.33,1558.17 4171.32,1557.45L4019.47,1557.45L4019.47,1711.49Z" style="fill:rgb(1,53,111);fill-rule:nonzero;"/>
                    </g>
                    <g transform="matrix(0.264355,0,0,-0.386874,-365.223,1159.02)">
                        <path d="M4327.91,1581.84C4173.24,1581.84 4047.86,1707.23 4047.86,1861.9C4047.86,1863.23 4047.89,1864.56 4047.91,1865.9L4327.91,1865.9L4327.91,1581.84Z" style="fill:rgb(255,143,45);fill-rule:nonzero;"/>
                    </g>
                    <g transform="matrix(0.264355,0,0,-0.386874,-365.223,1159.02)">
                        <path d="M3865.24,1790.3C3821.82,1790.3 3786.61,1755.1 3786.61,1711.67C3786.61,1668.25 3821.82,1633.04 3865.24,1633.04C3908.67,1633.04 3943.87,1668.25 3943.87,1711.67C3943.87,1755.1 3908.67,1790.3 3865.24,1790.3Z" style="fill:rgb(255,143,45);fill-rule:nonzero;"/>
                    </g>
                    <g transform="matrix(0.264355,0,0,-0.386874,-365.223,1159.02)">
                        <path d="M4019.47,1711.67L3865.24,1711.67L3865.24,1865.9C3950.42,1865.9 4019.47,1796.85 4019.47,1711.67Z" style="fill:rgb(1,53,111);fill-rule:nonzero;"/>
                    </g>
                    <g transform="matrix(0.264355,0,0,-0.386874,-365.223,1159.02)">
                        <path d="M3943.87,1711.67L3865.24,1711.67L3865.24,1790.3C3908.67,1790.3 3943.87,1755.1 3943.87,1711.67Z" style="fill:rgb(255,175,11);fill-rule:nonzero;"/>
                    </g>
                    <g transform="matrix(0.264355,0,0,-0.386874,-365.223,1159.02)">
                        <path d="M4019.47,1711.67C4019.47,1796.85 3950.42,1865.9 3865.24,1865.9L4019.47,1865.9L4019.47,1711.67Z" style="fill:rgb(60,124,156);fill-rule:nonzero;"/>
                    </g>
                    <g transform="matrix(0.264355,0,0,-0.386874,-365.223,1159.02)">
                        <path d="M4327.91,1636.85C4203.19,1636.85 4102.09,1737.96 4102.09,1862.67C4102.09,1863.75 4102.12,1864.82 4102.13,1865.9L4327.91,1865.9L4327.91,1636.85Z" style="fill:white;fill-rule:nonzero;"/>
                    </g>
                    <g transform="matrix(0.264355,0,0,-0.386874,-365.223,1159.02)">
                        <path d="M4327.91,1645.08C4207.67,1645.08 4110.21,1742.55 4110.21,1862.79C4110.21,1863.83 4110.23,1864.86 4110.25,1865.9L4327.91,1865.9L4327.91,1645.08Z" style="fill:rgb(255,186,4);fill-rule:nonzero;"/>
                    </g>
                    <g transform="matrix(0.264355,0,0,-0.386874,-365.223,1159.02)">
                        <path d="M4327.91,1709.32C4242.65,1709.32 4173.54,1778.43 4173.54,1863.69C4173.54,1864.43 4173.56,1865.16 4173.57,1865.9L4327.91,1865.9L4327.91,1709.32Z" style="fill:rgb(1,53,111);fill-rule:nonzero;"/>
                    </g>
                    <g transform="matrix(0.264355,0,0,-0.386874,-365.223,1159.02)">
                        <path d="M4171.34,1559.62C4171.34,1558.89 4171.33,1558.17 4171.32,1557.45L4019.47,1557.45L4127.93,1665.91C4154.78,1638.52 4171.34,1601 4171.34,1559.62Z" style="fill:rgb(255,186,4);fill-rule:nonzero;"/>
                    </g>
                    <g transform="matrix(0.264355,0,0,-0.386874,-365.223,1159.02)">
                        <path d="M4127.9,1665.88L4327.91,1865.9L4327.91,1581.84C4249.56,1581.84 4178.72,1614.02 4127.9,1665.88Z" style="fill:rgb(60,124,156);fill-rule:nonzero;"/>
                    </g>
                    <g transform="matrix(0.264355,0,0,-0.386874,-365.223,1159.02)">
                        <path d="M3888.47,1700.14C3881.29,1700.14 3875.46,1694.32 3875.46,1687.13C3875.46,1679.95 3881.29,1674.12 3888.47,1674.12C3895.66,1674.12 3901.49,1679.95 3901.49,1687.13C3901.49,1694.32 3895.66,1700.14 3888.47,1700.14Z" style="fill:white;fill-rule:nonzero;"/>
                    </g>
                    <g transform="matrix(0.264355,0,0,-0.386874,-365.223,1159.02)">
                        <path d="M3888.47,1749.22C3881.29,1749.22 3875.46,1743.4 3875.46,1736.21C3875.46,1729.03 3881.29,1723.2 3888.47,1723.2C3895.66,1723.2 3901.49,1729.03 3901.49,1736.21C3901.49,1743.4 3895.66,1749.22 3888.47,1749.22Z" style="fill:white;fill-rule:nonzero;"/>
                    </g>
                    <g transform="matrix(0.264355,0,0,-0.386874,-365.223,1159.02)">
                        <path d="M3842.01,1700.14C3834.82,1700.14 3828.99,1694.32 3828.99,1687.13C3828.99,1679.95 3834.82,1674.12 3842.01,1674.12C3849.2,1674.12 3855.02,1679.95 3855.02,1687.13C3855.02,1694.32 3849.2,1700.14 3842.01,1700.14Z" style="fill:white;fill-rule:nonzero;"/>
                    </g>
                    <g transform="matrix(0.264355,0,0,-0.386874,-365.223,1159.02)">
                        <path d="M3842.01,1749.22C3834.82,1749.22 3828.99,1743.4 3828.99,1736.21C3828.99,1729.03 3834.82,1723.2 3842.01,1723.2C3849.2,1723.2 3855.02,1729.03 3855.02,1736.21C3855.02,1743.4 3849.2,1749.22 3842.01,1749.22Z" style="fill:white;fill-rule:nonzero;"/>
                    </g>
                    <g transform="matrix(0.264355,0,0,-0.386874,-365.223,1159.02)">
                        <path d="M4166.64,1704.63L4327.91,1865.9L4327.91,1636.85C4264.73,1636.85 4207.63,1662.81 4166.64,1704.63Z" style="fill:white;fill-rule:nonzero;"/>
                    </g>
                    <g transform="matrix(0.264355,0,0,-0.386874,-365.223,1159.02)">
                        <path d="M4172.44,1710.42L4327.91,1865.9L4327.91,1645.08C4267,1645.08 4211.95,1670.1 4172.44,1710.42Z" style="fill:rgb(255,143,45);fill-rule:nonzero;"/>
                    </g>
                    <g transform="matrix(0.264355,0,0,-0.386874,-365.223,1159.02)">
                        <path d="M4217.67,1755.65L4327.91,1865.9L4327.91,1709.32C4284.72,1709.32 4245.68,1727.06 4217.67,1755.65Z" style="fill:rgb(60,124,156);fill-rule:nonzero;"/>
                    </g>
                    <g transform="matrix(0.258607,0,0,0.378461,-341.228,-35.6186)">
                        <path d="M4019.46,1249L4327.91,1249L4327.91,940.555C4157.56,940.555 4019.46,1078.65 4019.46,1249Z" style="fill:rgb(1,53,111);fill-rule:nonzero;"/>
                    </g>
                    <g transform="matrix(0.258607,0,0,0.378461,-341.228,-35.6186)">
                        <path d="M4327.91,940.555L4327.91,1249L4109.81,1030.9C4165.63,975.08 4242.74,940.555 4327.91,940.555Z" style="fill:rgb(255,151,88);fill-rule:nonzero;"/>
                    </g>
                    <g transform="matrix(0.258607,0,0,0.378461,-341.228,-35.6186)">
                        <path d="M4274.03,1058.87C4266.84,1058.87 4261.02,1064.69 4261.02,1071.88C4261.02,1079.06 4266.84,1084.89 4274.03,1084.89C4281.22,1084.89 4287.05,1079.06 4287.05,1071.88C4287.05,1064.69 4281.22,1058.87 4274.03,1058.87Z" style="fill:white;fill-rule:nonzero;"/>
                    </g>
                    <g transform="matrix(0.258607,0,0,0.378461,-341.228,-35.6186)">
                        <path d="M4274.03,1009.78C4266.84,1009.78 4261.02,1015.61 4261.02,1022.8C4261.02,1029.98 4266.84,1035.81 4274.03,1035.81C4281.22,1035.81 4287.05,1029.98 4287.05,1022.8C4287.05,1015.61 4281.22,1009.78 4274.03,1009.78Z" style="fill:white;fill-rule:nonzero;"/>
                    </g>
                    <g transform="matrix(0.258607,0,0,0.378461,-341.228,-35.6186)">
                        <path d="M4274.03,1108.42C4266.84,1108.42 4261.02,1114.25 4261.02,1121.43C4261.02,1128.62 4266.84,1134.45 4274.03,1134.45C4281.22,1134.45 4287.05,1128.62 4287.05,1121.43C4287.05,1114.25 4281.22,1108.42 4274.03,1108.42Z" style="fill:white;fill-rule:nonzero;"/>
                    </g>
                    <g transform="matrix(1.98614e-17,-0.474689,0.32436,2.90663e-17,296.015,2046.79)">
                        <path d="M3292.13,834.685C3292.13,751.116 3224.38,683.371 3140.81,683.371L3140.81,986C3224.38,986 3292.13,918.255 3292.13,834.685Z" style="fill:rgb(255,143,45);fill-rule:nonzero;"/>
                    </g>
                    <g transform="matrix(1.98614e-17,-0.474689,0.32436,2.90663e-17,296.015,2046.79)">
                        <path d="M3243.7,834.686C3243.7,777.865 3197.64,731.803 3140.81,731.803L3140.81,937.568C3197.64,937.568 3243.7,891.506 3243.7,834.686Z" style="fill:rgb(1,53,111);fill-rule:nonzero;"/>
                    </g>
                    <g transform="matrix(1.98614e-17,-0.474689,0.32436,2.90663e-17,296.015,2046.79)">
                        <path d="M3194.36,811.89C3194.36,818.942 3188.64,824.658 3181.59,824.658C3174.54,824.658 3168.82,818.942 3168.82,811.89C3168.82,804.839 3174.54,799.123 3181.59,799.123C3188.64,799.123 3194.36,804.839 3194.36,811.89Z" style="fill:white;fill-rule:nonzero;"/>
                    </g>
                    <g transform="matrix(1.98614e-17,-0.474689,0.32436,2.90663e-17,296.015,2046.79)">
                        <path d="M3194.36,857.48C3194.36,864.532 3188.64,870.248 3181.59,870.248C3174.54,870.248 3168.82,864.532 3168.82,857.48C3168.82,850.429 3174.54,844.712 3181.59,844.712C3188.64,844.712 3194.36,850.429 3194.36,857.48Z" style="fill:white;fill-rule:nonzero;"/>
                    </g>
                </g>
            </g>
        </g>
    </g>
</svg>
